<svg width="410.938" height="91.993" viewBox="0 0 410.938 91.993" xmlns="http://www.w3.org/2000/svg">
    <svg width="410.938" height="91.993" viewBox="0 0 410.938 91.993" xmlns="http://www.w3.org/2000/svg">
        <g id="svgGroup" stroke-linecap="round" font-size="9pt" stroke="#014C86" stroke-width="0.25mm" fill="#014C86" style="stroke:#014C86;stroke-width:0.25mm;">
            <path d="M 61.914 20.997 L 56.738 58.594 Q 56.181 62.575 57.36 64.852 A 5.237 5.237 0 0 0 57.984 65.796 A 6.015 6.015 0 0 0 60.841 67.672 Q 62.219 68.116 64.014 68.116 A 8.698 8.698 0 0 0 67.95 67.146 A 12.021 12.021 0 0 0 69.824 65.967 A 16.82 16.82 0 0 0 72.654 63.209 Q 73.751 61.872 74.724 60.209 A 27.802 27.802 0 0 0 74.854 59.986 Q 77.051 56.153 78.394 50.855 A 43.52 43.52 0 0 0 79.548 43.861 A 53.489 53.489 0 0 0 79.736 39.307 A 42.653 42.653 0 0 0 78.778 30.125 A 37.152 37.152 0 0 0 77.612 25.977 A 31.594 31.594 0 0 0 73.603 18.042 A 28.601 28.601 0 0 0 71.46 15.357 A 27.964 27.964 0 0 0 62.276 8.675 A 32.334 32.334 0 0 0 61.548 8.35 A 30.591 30.591 0 0 0 53.644 6.183 A 39.895 39.895 0 0 0 48.096 5.811 Q 42.09 5.811 36.67 7.52 Q 31.25 9.229 26.587 12.305 Q 21.924 15.381 18.164 19.654 Q 14.404 23.926 11.743 29.102 A 50.299 50.299 0 0 0 7.642 40.137 A 50.747 50.747 0 0 0 6.201 52.295 A 46.579 46.579 0 0 0 7.083 61.5 A 40.441 40.441 0 0 0 8.154 65.674 A 32.096 32.096 0 0 0 11.74 73.428 A 28.721 28.721 0 0 0 13.965 76.441 Q 17.822 81.006 23.511 83.594 A 28.227 28.227 0 0 0 30.885 85.751 A 37.845 37.845 0 0 0 36.719 86.182 A 38.472 38.472 0 0 0 42.066 85.816 Q 44.678 85.45 47.022 84.864 A 37.207 37.207 0 0 0 49.808 84.055 A 30.713 30.713 0 0 0 51.343 83.497 Q 53.112 82.798 54.432 82.06 A 17.269 17.269 0 0 0 54.736 81.885 L 56.738 86.475 A 33.759 33.759 0 0 1 51.758 88.941 A 42.628 42.628 0 0 1 46.411 90.674 Q 43.701 91.358 41.04 91.675 A 44.674 44.674 0 0 1 37.182 91.973 A 38.869 38.869 0 0 1 35.938 91.993 A 42.724 42.724 0 0 1 27.783 91.248 A 33.103 33.103 0 0 1 20.606 89.014 A 32.218 32.218 0 0 1 10.263 81.81 A 31.118 31.118 0 0 1 9.351 80.811 Q 4.785 75.586 2.393 68.482 A 46.137 46.137 0 0 1 0.15 57.152 A 54.666 54.666 0 0 1 0 53.077 A 55.896 55.896 0 0 1 1.709 39.234 A 56.184 56.184 0 0 1 6.568 26.612 Q 9.717 20.704 14.16 15.821 Q 18.604 10.938 24.024 7.422 Q 29.444 3.907 35.742 1.954 Q 42.041 0.001 48.926 0.001 A 43.733 43.733 0 0 1 57.606 0.827 A 34.977 34.977 0 0 1 64.429 2.93 A 34.206 34.206 0 0 1 74.488 9.418 A 32.432 32.432 0 0 1 76.074 11.011 A 35.027 35.027 0 0 1 83.072 22.322 A 40.126 40.126 0 0 1 83.399 23.194 A 43.185 43.185 0 0 1 85.814 34.894 A 51.158 51.158 0 0 1 85.938 38.477 A 53.07 53.07 0 0 1 85.313 46.494 A 57.814 57.814 0 0 1 85.303 46.558 A 51.063 51.063 0 0 1 83.399 54.59 A 41.115 41.115 0 0 1 80.225 61.915 A 28.018 28.018 0 0 1 76.695 66.921 A 25.492 25.492 0 0 1 75.757 67.92 Q 73.194 70.508 69.971 71.998 A 16.303 16.303 0 0 1 64.298 73.433 A 19.535 19.535 0 0 1 62.842 73.487 A 20.808 20.808 0 0 1 60.623 73.375 Q 59.281 73.231 58.154 72.901 A 13.894 13.894 0 0 1 56.091 72.123 A 11.079 11.079 0 0 1 54.663 71.314 A 10.464 10.464 0 0 1 52.124 68.921 A 15.881 15.881 0 0 1 50.342 65.918 A 18.996 18.996 0 0 1 44.531 70.337 Q 41.211 71.973 37.5 71.973 L 36.035 71.973 A 13.829 13.829 0 0 1 32.737 71.592 A 11.988 11.988 0 0 1 30.933 70.997 Q 28.613 70.02 26.929 68.335 Q 25.244 66.651 24.292 64.356 A 12.654 12.654 0 0 1 23.356 60.061 A 14.741 14.741 0 0 1 23.34 59.376 L 23.34 58.326 A 5.818 5.818 0 0 1 23.423 57.36 A 6.442 6.442 0 0 1 23.438 57.276 L 26.514 34.717 A 16.034 16.034 0 0 1 28.491 29.004 Q 30.029 26.319 32.324 24.317 A 17.964 17.964 0 0 1 37.476 21.168 A 15.525 15.525 0 0 1 43.311 20.02 L 44.824 20.02 A 14.047 14.047 0 0 1 48.697 20.538 A 12.135 12.135 0 0 1 51.367 21.656 A 11.48 11.48 0 0 1 55.811 26.075 L 59.912 20.997 L 61.914 20.997 Z M 140.332 70.997 L 137.012 70.997 L 107.813 20.02 L 107.227 16.993 L 107.227 70.997 L 100.928 70.997 L 100.928 0.977 L 104.199 0.977 L 133.399 52.002 L 134.033 54.981 L 134.033 0.977 L 140.332 0.977 L 140.332 70.997 Z M 322.998 70.997 L 316.992 70.997 L 316.992 34.376 Q 316.992 32.569 316.309 30.982 A 8.758 8.758 0 0 0 314.453 28.223 Q 313.281 27.051 311.694 26.368 Q 310.108 25.684 308.301 25.684 L 304.297 25.684 Q 302.49 25.684 300.903 26.368 A 8.758 8.758 0 0 0 298.145 28.223 Q 296.973 29.395 296.289 30.982 Q 295.606 32.569 295.606 34.376 L 295.606 70.997 L 289.6 70.997 L 289.6 20.997 L 291.602 20.997 L 294.873 26.075 A 15.011 15.011 0 0 1 300.025 21.656 Q 303.125 20.02 306.787 20.02 L 308.301 20.02 A 14.387 14.387 0 0 1 314.014 21.168 A 14.758 14.758 0 0 1 318.701 24.317 Q 320.703 26.319 321.851 29.004 A 14.387 14.387 0 0 1 322.998 34.717 L 322.998 70.997 Z M 172.07 71.973 L 168.067 71.973 A 14.387 14.387 0 0 1 162.354 70.826 A 14.758 14.758 0 0 1 157.666 67.676 Q 155.664 65.674 154.517 62.989 A 14.387 14.387 0 0 1 153.369 57.276 L 153.369 34.717 A 14.387 14.387 0 0 1 154.517 29.004 A 14.758 14.758 0 0 1 157.666 24.317 Q 159.668 22.315 162.354 21.168 A 14.387 14.387 0 0 1 168.067 20.02 L 172.07 20.02 A 14.387 14.387 0 0 1 177.783 21.168 A 14.758 14.758 0 0 1 182.471 24.317 Q 184.473 26.319 185.62 29.004 A 14.387 14.387 0 0 1 186.768 34.717 L 186.768 46.485 L 159.375 46.485 L 159.375 57.618 Q 159.375 59.424 160.059 61.011 A 8.758 8.758 0 0 0 161.914 63.77 Q 163.086 64.942 164.673 65.626 Q 166.26 66.309 168.067 66.309 L 172.07 66.309 Q 173.877 66.309 175.464 65.626 A 8.758 8.758 0 0 0 178.223 63.77 Q 179.395 62.598 180.078 61.011 Q 180.762 59.424 180.762 57.618 L 180.762 54.297 L 186.768 55.274 L 186.768 57.276 A 14.387 14.387 0 0 1 185.62 62.989 A 14.758 14.758 0 0 1 182.471 67.676 Q 180.469 69.678 177.783 70.826 A 14.387 14.387 0 0 1 172.07 71.973 Z M 206.787 70.997 L 200.781 70.997 L 200.781 0.977 L 206.787 0.977 L 206.787 70.997 Z M 365.039 70.997 L 359.033 70.997 L 359.033 0.977 L 365.039 0.977 L 365.039 70.997 Z M 262.891 71.973 L 258.887 71.973 A 14.387 14.387 0 0 1 253.174 70.826 A 14.758 14.758 0 0 1 248.486 67.676 Q 246.485 65.674 245.337 62.989 A 14.387 14.387 0 0 1 244.19 57.276 L 244.19 34.717 A 14.387 14.387 0 0 1 245.337 29.004 A 14.758 14.758 0 0 1 248.486 24.317 Q 250.488 22.315 253.174 21.168 A 14.387 14.387 0 0 1 258.887 20.02 L 262.891 20.02 A 14.387 14.387 0 0 1 268.604 21.168 A 14.758 14.758 0 0 1 273.291 24.317 Q 275.293 26.319 276.441 29.004 A 14.387 14.387 0 0 1 277.588 34.717 L 277.588 57.276 A 14.387 14.387 0 0 1 276.441 62.989 A 14.758 14.758 0 0 1 273.291 67.676 Q 271.289 69.678 268.604 70.826 A 14.387 14.387 0 0 1 262.891 71.973 Z M 236.182 70.997 L 228.369 70.997 L 207.959 45.997 L 228.369 20.997 L 236.182 20.997 L 215.283 45.997 L 236.182 70.997 Z M 394.434 70.997 L 386.621 70.997 L 366.211 45.997 L 386.621 20.997 L 394.434 20.997 L 373.535 45.997 L 394.434 70.997 Z M 343.018 70.997 L 337.012 70.997 L 337.012 20.997 L 343.018 20.997 L 343.018 70.997 Z M 410.449 70.997 L 404.444 70.997 L 404.444 20.997 L 410.449 20.997 L 410.449 70.997 Z M 32.617 34.376 L 29.297 57.618 A 3.558 3.558 0 0 1 29.248 58.204 A 3.558 3.558 0 0 0 29.199 58.79 A 8.098 8.098 0 0 0 29.465 60.89 A 7.218 7.218 0 0 0 29.761 61.768 Q 30.322 63.135 31.348 64.161 A 7.173 7.173 0 0 0 33.765 65.748 A 7.805 7.805 0 0 0 36.102 66.282 A 9.326 9.326 0 0 0 36.817 66.309 L 40.82 66.309 A 9.018 9.018 0 0 0 44.287 65.626 A 10.774 10.774 0 0 0 47.29 63.77 A 10.572 10.572 0 0 0 49.536 61.011 A 10.061 10.061 0 0 0 50.733 57.618 L 54.004 34.376 A 1.919 1.919 0 0 0 54.096 33.909 A 2.272 2.272 0 0 0 54.102 33.741 L 54.102 33.106 A 7.687 7.687 0 0 0 53.641 30.434 A 7.342 7.342 0 0 0 53.54 30.176 A 7.15 7.15 0 0 0 51.978 27.808 A 7.063 7.063 0 0 0 49.693 26.29 A 8.073 8.073 0 0 0 49.585 26.246 A 7.805 7.805 0 0 0 47.248 25.711 A 9.326 9.326 0 0 0 46.533 25.684 L 42.529 25.684 A 9.201 9.201 0 0 0 39.038 26.368 Q 37.354 27.051 36.011 28.223 A 10.572 10.572 0 0 0 33.765 30.982 Q 32.861 32.569 32.617 34.376 Z M 271.582 57.618 L 271.582 34.376 Q 271.582 32.569 270.899 30.982 A 8.758 8.758 0 0 0 269.043 28.223 Q 267.871 27.051 266.284 26.368 Q 264.697 25.684 262.891 25.684 L 258.887 25.684 Q 257.08 25.684 255.493 26.368 A 8.758 8.758 0 0 0 252.735 28.223 Q 251.563 29.395 250.879 30.982 Q 250.195 32.569 250.195 34.376 L 250.195 57.618 Q 250.195 59.424 250.879 61.011 A 8.758 8.758 0 0 0 252.735 63.77 Q 253.906 64.942 255.493 65.626 Q 257.08 66.309 258.887 66.309 L 262.891 66.309 Q 264.697 66.309 266.284 65.626 A 8.758 8.758 0 0 0 269.043 63.77 Q 270.215 62.598 270.899 61.011 Q 271.582 59.424 271.582 57.618 Z M 180.762 41.797 L 180.762 34.376 Q 180.762 32.569 180.078 30.982 A 8.758 8.758 0 0 0 178.223 28.223 Q 177.051 27.051 175.464 26.368 Q 173.877 25.684 172.07 25.684 L 168.067 25.684 Q 166.26 25.684 164.673 26.368 A 8.758 8.758 0 0 0 161.914 28.223 Q 160.742 29.395 160.059 30.982 Q 159.375 32.569 159.375 34.376 L 159.375 41.797 L 180.762 41.797 Z M 343.506 8.985 L 336.524 8.985 L 336.524 0.977 L 343.506 0.977 L 343.506 8.985 Z M 410.938 8.985 L 403.955 8.985 L 403.955 0.977 L 410.938 0.977 L 410.938 8.985 Z" vector-effect="non-scaling-stroke"/>
        </g>
    </svg>
</svg>